<?xml version="1.0" encoding="iso-8859-1"?>
<!-- Generator: Adobe Illustrator 19.0.0, SVG Export Plug-In . SVG Version: 6.00 Build 0)  -->
<svg version="1.1" id="Layer_1" xmlns="http://www.w3.org/2000/svg" xmlns:xlink="http://www.w3.org/1999/xlink" x="0px" y="0px"
	 viewBox="0 0 484.431 484.431" style="enable-background:new 0 0 484.431 484.431;" xml:space="preserve">
<g>
	<path style="fill:#0B2C6D;" d="M391.326,172.308c0,4.356-3.505,7.877-7.877,7.877h-59.077c-4.356,0-7.877-3.521-7.877-7.877
		v-22.646c0-4.356,3.521-7.877,7.877-7.877h59.077c4.372,0,7.877,3.521,7.877,7.877V172.308z"/>
	<path style="fill:#0B2C6D;" d="M288.075,167.708h162.848c6.829,0,12.398,5.553,12.398,12.375v291.966
		c0,6.821-5.569,12.375-12.398,12.375H288.075c-6.814,0-12.367-5.553-12.367-12.375V180.082
		C275.708,173.261,281.261,167.708,288.075,167.708z"/>
</g>
<path style="fill:#0734A3;" d="M288.075,484.431c-6.814,0-12.367-5.553-12.367-12.375V180.082c0-6.821,5.553-12.375,12.367-12.375
	h162.848c6.829,0,12.398,5.553,12.398,12.375"/>
<path style="fill:#DDDD85;" d="M421.754,208.053c0,2.836,2.308,5.152,5.151,5.152h6.861c2.844,0,5.136-2.316,5.136-5.152v-6.869
	c0-2.836-2.292-5.144-5.136-5.144h-6.861c-2.844,0-5.151,2.308-5.151,5.144V208.053z"/>
<path style="fill:#007EEF;" d="M419.186,212.126c0,1.071,0.859,1.938,1.922,1.938h18.464c1.063,0,1.922-0.866,1.922-1.938l0,0
	c0-1.063-0.859-1.93-1.922-1.93h-18.464C420.045,210.196,419.186,211.062,419.186,212.126L419.186,212.126z"/>
<path style="fill:#DDDD85;" d="M381.204,208.053c0,2.836,2.308,5.152,5.136,5.152h6.877c2.844,0,5.151-2.316,5.151-5.152v-6.869
	c0-2.836-2.308-5.144-5.151-5.144h-6.877c-2.828,0-5.136,2.308-5.136,5.144V208.053z"/>
<path style="fill:#007EEF;" d="M378.644,212.126c0,1.071,0.843,1.938,1.906,1.938h18.464c1.063,0,1.938-0.866,1.938-1.938l0,0
	c0-1.063-0.874-1.93-1.938-1.93H380.55C379.494,210.196,378.644,211.062,378.644,212.126L378.644,212.126z"/>
<path style="fill:#DDDD85;" d="M340.645,208.053c0,2.836,2.292,5.152,5.151,5.152h6.861c2.844,0,5.136-2.316,5.136-5.152v-6.869
	c0-2.836-2.292-5.144-5.136-5.144h-6.861c-2.859,0-5.151,2.308-5.151,5.144L340.645,208.053L340.645,208.053z"/>
<path style="fill:#007EEF;" d="M338.062,212.126c0,1.071,0.874,1.938,1.938,1.938h18.464c1.063,0,1.938-0.866,1.938-1.938l0,0
	c0-1.063-0.874-1.93-1.938-1.93h-18.464C338.936,210.196,338.062,211.062,338.062,212.126L338.062,212.126z"/>
<path style="fill:#DDDD85;" d="M300.095,208.053c0,2.836,2.292,5.152,5.152,5.152h6.845c2.859,0,5.167-2.316,5.167-5.152v-6.869
	c0-2.836-2.308-5.144-5.167-5.144h-6.845c-2.859,0-5.152,2.308-5.152,5.144V208.053z"/>
<path style="fill:#007EEF;" d="M297.511,212.126c0,1.071,0.874,1.938,1.938,1.938h18.464c1.063,0,1.922-0.866,1.922-1.938l0,0
	c0-1.063-0.859-1.93-1.922-1.93h-18.464C298.386,210.196,297.511,211.062,297.511,212.126L297.511,212.126z"/>
<path style="fill:#DDDD85;" d="M421.754,248.391c0,2.844,2.308,5.144,5.151,5.144h6.861c2.844,0,5.136-2.3,5.136-5.144v-6.861
	c0-2.851-2.292-5.152-5.136-5.152h-6.861c-2.844,0-5.151,2.3-5.151,5.152V248.391z"/>
<path style="fill:#007EEF;" d="M419.186,252.471c0,1.063,0.859,1.922,1.922,1.922h18.464c1.063,0,1.922-0.859,1.922-1.922l0,0
	c0-1.071-0.859-1.93-1.922-1.93h-18.464C420.045,250.541,419.186,251.4,419.186,252.471L419.186,252.471z"/>
<path style="fill:#DDDD85;" d="M381.204,248.391c0,2.844,2.308,5.144,5.136,5.144h6.877c2.844,0,5.151-2.3,5.151-5.144v-6.861
	c0-2.851-2.308-5.152-5.151-5.152h-6.877c-2.828,0-5.136,2.3-5.136,5.152V248.391z"/>
<path style="fill:#007EEF;" d="M378.644,252.471c0,1.063,0.843,1.922,1.906,1.922h18.464c1.063,0,1.938-0.859,1.938-1.922l0,0
	c0-1.071-0.874-1.93-1.938-1.93H380.55C379.494,250.541,378.644,251.4,378.644,252.471L378.644,252.471z"/>
<path style="fill:#DDDD85;" d="M340.645,248.391c0,2.844,2.292,5.144,5.151,5.144h6.861c2.844,0,5.136-2.3,5.136-5.144v-6.861
	c0-2.851-2.292-5.152-5.136-5.152h-6.861c-2.859,0-5.151,2.3-5.151,5.152L340.645,248.391L340.645,248.391z"/>
<path style="fill:#007EEF;" d="M338.062,252.471c0,1.063,0.874,1.922,1.938,1.922h18.464c1.063,0,1.938-0.859,1.938-1.922l0,0
	c0-1.071-0.874-1.93-1.938-1.93h-18.464C338.936,250.541,338.062,251.4,338.062,252.471L338.062,252.471z"/>
<path style="fill:#DDDD85;" d="M300.095,248.391c0,2.844,2.292,5.144,5.152,5.144h6.845c2.859,0,5.167-2.3,5.167-5.144v-6.861
	c0-2.851-2.308-5.152-5.167-5.152h-6.845c-2.859,0-5.152,2.3-5.152,5.152V248.391z"/>
<path style="fill:#007EEF;" d="M297.511,252.471c0,1.063,0.874,1.922,1.938,1.922h18.464c1.063,0,1.922-0.859,1.922-1.922l0,0
	c0-1.071-0.859-1.93-1.922-1.93h-18.464C298.386,250.541,297.511,251.4,297.511,252.471L297.511,252.471z"/>
<path style="fill:#DDDD85;" d="M421.754,288.729c0,2.844,2.308,5.151,5.151,5.151h6.861c2.844,0,5.136-2.308,5.136-5.151v-6.861
	c0-2.844-2.292-5.144-5.136-5.144h-6.861c-2.844,0-5.151,2.3-5.151,5.144V288.729z"/>
<path style="fill:#007EEF;" d="M419.186,292.809c0,1.071,0.859,1.93,1.922,1.93h18.464c1.063,0,1.922-0.859,1.922-1.93l0,0
	c0-1.063-0.859-1.938-1.922-1.938h-18.464C420.045,290.871,419.186,291.745,419.186,292.809L419.186,292.809z"/>
<path style="fill:#DDDD85;" d="M381.204,288.729c0,2.844,2.308,5.151,5.136,5.151h6.877c2.844,0,5.151-2.308,5.151-5.151v-6.861
	c0-2.844-2.308-5.144-5.151-5.144h-6.877c-2.828,0-5.136,2.3-5.136,5.144V288.729z"/>
<path style="fill:#007EEF;" d="M378.644,292.809c0,1.071,0.843,1.93,1.906,1.93h18.464c1.063,0,1.938-0.859,1.938-1.93l0,0
	c0-1.063-0.874-1.938-1.938-1.938H380.55C379.494,290.871,378.644,291.745,378.644,292.809L378.644,292.809z"/>
<path style="fill:#DDDD85;" d="M340.645,288.729c0,2.844,2.292,5.151,5.151,5.151h6.861c2.844,0,5.136-2.308,5.136-5.151v-6.861
	c0-2.844-2.292-5.144-5.136-5.144h-6.861c-2.859,0-5.151,2.3-5.151,5.144L340.645,288.729L340.645,288.729z"/>
<path style="fill:#007EEF;" d="M338.062,292.809c0,1.071,0.874,1.93,1.938,1.93h18.464c1.063,0,1.938-0.859,1.938-1.93l0,0
	c0-1.063-0.874-1.938-1.938-1.938h-18.464C338.936,290.871,338.062,291.745,338.062,292.809L338.062,292.809z"/>
<path style="fill:#DDDD85;" d="M300.095,288.729c0,2.844,2.292,5.151,5.152,5.151h6.845c2.859,0,5.167-2.308,5.167-5.151v-6.861
	c0-2.844-2.308-5.144-5.167-5.144h-6.845c-2.859,0-5.152,2.3-5.152,5.144V288.729z"/>
<path style="fill:#007EEF;" d="M297.511,292.809c0,1.071,0.874,1.93,1.938,1.93h18.464c1.063,0,1.922-0.859,1.922-1.93l0,0
	c0-1.063-0.859-1.938-1.922-1.938h-18.464C298.386,290.871,297.511,291.745,297.511,292.809L297.511,292.809z"/>
<path style="fill:#DDDD85;" d="M421.754,329.074c0,2.836,2.308,5.144,5.151,5.144h6.861c2.844,0,5.136-2.308,5.136-5.144v-6.869
	c0-2.851-2.292-5.152-5.136-5.152h-6.861c-2.844,0-5.151,2.3-5.151,5.152V329.074z"/>
<path style="fill:#007EEF;" d="M419.186,333.147c0,1.071,0.859,1.93,1.922,1.93h18.464c1.063,0,1.922-0.859,1.922-1.93l0,0
	c0-1.071-0.859-1.93-1.922-1.93h-18.464C420.045,331.217,419.186,332.075,419.186,333.147L419.186,333.147z"/>
<path style="fill:#DDDD85;" d="M381.204,329.074c0,2.836,2.308,5.144,5.136,5.144h6.877c2.844,0,5.151-2.308,5.151-5.144v-6.869
	c0-2.851-2.308-5.152-5.151-5.152h-6.877c-2.828,0-5.136,2.3-5.136,5.152V329.074z"/>
<path style="fill:#007EEF;" d="M378.644,333.147c0,1.071,0.843,1.93,1.906,1.93h18.464c1.063,0,1.938-0.859,1.938-1.93l0,0
	c0-1.071-0.874-1.93-1.938-1.93H380.55C379.494,331.217,378.644,332.075,378.644,333.147L378.644,333.147z"/>
<path style="fill:#DDDD85;" d="M340.645,329.074c0,2.836,2.292,5.144,5.151,5.144h6.861c2.844,0,5.136-2.308,5.136-5.144v-6.869
	c0-2.851-2.292-5.152-5.136-5.152h-6.861c-2.859,0-5.151,2.3-5.151,5.152L340.645,329.074L340.645,329.074z"/>
<path style="fill:#007EEF;" d="M338.062,333.147c0,1.071,0.874,1.93,1.938,1.93h18.464c1.063,0,1.938-0.859,1.938-1.93l0,0
	c0-1.071-0.874-1.93-1.938-1.93h-18.464C338.936,331.217,338.062,332.075,338.062,333.147L338.062,333.147z"/>
<path style="fill:#DDDD85;" d="M300.095,329.074c0,2.836,2.292,5.144,5.152,5.144h6.845c2.859,0,5.167-2.308,5.167-5.144v-6.869
	c0-2.851-2.308-5.152-5.167-5.152h-6.845c-2.859,0-5.152,2.3-5.152,5.152V329.074z"/>
<path style="fill:#007EEF;" d="M297.511,333.147c0,1.071,0.874,1.93,1.938,1.93h18.464c1.063,0,1.922-0.859,1.922-1.93l0,0
	c0-1.071-0.859-1.93-1.922-1.93h-18.464C298.386,331.217,297.511,332.075,297.511,333.147L297.511,333.147z"/>
<path style="fill:#DDDD85;" d="M421.754,369.404c0,2.851,2.308,5.152,5.151,5.152h6.861c2.844,0,5.136-2.3,5.136-5.152v-6.861
	c0-2.844-2.292-5.144-5.136-5.144h-6.861c-2.844,0-5.151,2.3-5.151,5.144V369.404z"/>
<path style="fill:#007EEF;" d="M419.186,373.484c0,1.071,0.859,1.93,1.922,1.93h18.464c1.063,0,1.922-0.859,1.922-1.93l0,0
	c0-1.063-0.859-1.93-1.922-1.93h-18.464C420.045,371.554,419.186,372.421,419.186,373.484L419.186,373.484z"/>
<path style="fill:#DDDD85;" d="M381.204,369.404c0,2.851,2.308,5.152,5.136,5.152h6.877c2.844,0,5.151-2.3,5.151-5.152v-6.861
	c0-2.844-2.308-5.144-5.151-5.144h-6.877c-2.828,0-5.136,2.3-5.136,5.144V369.404z"/>
<path style="fill:#007EEF;" d="M378.644,373.484c0,1.071,0.843,1.93,1.906,1.93h18.464c1.063,0,1.938-0.859,1.938-1.93l0,0
	c0-1.063-0.874-1.93-1.938-1.93H380.55C379.494,371.554,378.644,372.421,378.644,373.484L378.644,373.484z"/>
<path style="fill:#DDDD85;" d="M340.645,369.404c0,2.851,2.292,5.152,5.151,5.152h6.861c2.844,0,5.136-2.3,5.136-5.152v-6.861
	c0-2.844-2.292-5.144-5.136-5.144h-6.861c-2.859,0-5.151,2.3-5.151,5.144L340.645,369.404L340.645,369.404z"/>
<path style="fill:#007EEF;" d="M338.062,373.484c0,1.071,0.874,1.93,1.938,1.93h18.464c1.063,0,1.938-0.859,1.938-1.93l0,0
	c0-1.063-0.874-1.93-1.938-1.93h-18.464C338.936,371.554,338.062,372.421,338.062,373.484L338.062,373.484z"/>
<path style="fill:#DDDD85;" d="M300.095,369.404c0,2.851,2.292,5.152,5.152,5.152h6.845c2.859,0,5.167-2.3,5.167-5.152v-6.861
	c0-2.844-2.308-5.144-5.167-5.144h-6.845c-2.859,0-5.152,2.3-5.152,5.144V369.404z"/>
<path style="fill:#007EEF;" d="M297.511,373.484c0,1.071,0.874,1.93,1.938,1.93h18.464c1.063,0,1.922-0.859,1.922-1.93l0,0
	c0-1.063-0.859-1.93-1.922-1.93h-18.464C298.386,371.554,297.511,372.421,297.511,373.484L297.511,373.484z"/>
<path style="fill:#DDDD85;" d="M421.754,409.758c0,2.844,2.308,5.144,5.151,5.144h6.861c2.844,0,5.136-2.3,5.136-5.144v-6.861
	c0-2.851-2.292-5.151-5.136-5.151h-6.861c-2.844,0-5.151,2.3-5.151,5.151V409.758z"/>
<path style="fill:#007EEF;" d="M419.186,413.83c0,1.063,0.859,1.922,1.922,1.922h18.464c1.063,0,1.922-0.859,1.922-1.922l0,0
	c0-1.079-0.859-1.938-1.922-1.938h-18.464C420.045,411.892,419.186,412.751,419.186,413.83L419.186,413.83z"/>
<path style="fill:#DDDD85;" d="M381.204,409.758c0,2.844,2.308,5.144,5.136,5.144h6.877c2.844,0,5.151-2.3,5.151-5.144v-6.861
	c0-2.851-2.308-5.151-5.151-5.151h-6.877c-2.828,0-5.136,2.3-5.136,5.151V409.758z"/>
<path style="fill:#007EEF;" d="M378.644,413.83c0,1.063,0.843,1.922,1.906,1.922h18.464c1.063,0,1.938-0.859,1.938-1.922l0,0
	c0-1.079-0.874-1.938-1.938-1.938H380.55C379.494,411.892,378.644,412.751,378.644,413.83L378.644,413.83z"/>
<path style="fill:#DDDD85;" d="M340.645,409.758c0,2.844,2.292,5.144,5.151,5.144h6.861c2.844,0,5.136-2.3,5.136-5.144v-6.861
	c0-2.851-2.292-5.151-5.136-5.151h-6.861c-2.859,0-5.151,2.3-5.151,5.151L340.645,409.758L340.645,409.758z"/>
<path style="fill:#007EEF;" d="M338.062,413.83c0,1.063,0.874,1.922,1.938,1.922h18.464c1.063,0,1.938-0.859,1.938-1.922l0,0
	c0-1.079-0.874-1.938-1.938-1.938h-18.464C338.936,411.892,338.062,412.751,338.062,413.83L338.062,413.83z"/>
<path style="fill:#DDDD85;" d="M300.095,409.758c0,2.844,2.292,5.144,5.152,5.144h6.845c2.859,0,5.167-2.3,5.167-5.144v-6.861
	c0-2.851-2.308-5.151-5.167-5.151h-6.845c-2.859,0-5.152,2.3-5.152,5.151V409.758z"/>
<g>
	<path style="fill:#007EEF;" d="M297.511,413.83c0,1.063,0.874,1.922,1.938,1.922h18.464c1.063,0,1.922-0.859,1.922-1.922l0,0
		c0-1.079-0.859-1.938-1.922-1.938h-18.464C298.386,411.892,297.511,412.751,297.511,413.83L297.511,413.83z"/>
	<path style="fill:#007EEF;" d="M314.998,0H65.922C55.477,0,46.986,8.491,46.986,18.928v446.566
		c0,10.437,8.491,18.928,18.936,18.928h249.076c10.445,0,18.936-8.491,18.936-18.928V18.928C333.942,8.491,325.443,0,314.998,0z"/>
</g>
<path style="fill:#075AD3;" d="M314.998,484.431c10.445,0,18.936-8.491,18.936-18.928V18.928C333.934,8.491,325.443,0,314.998,0
	H65.922C55.477,0,46.986,8.491,46.986,18.928"/>
<path style="fill:#DDDD85;" d="M110.537,61.708c0,4.356-3.521,7.877-7.877,7.877H92.168c-4.34,0-7.877-3.521-7.877-7.877v-10.5
	c0-4.356,3.537-7.877,7.877-7.877h10.492c4.356,0,7.877,3.521,7.877,7.877V61.708z"/>
<path style="fill:#007EEF;" d="M114.475,67.938c0,1.631-1.323,2.954-2.954,2.954H83.291c-1.631,0-2.954-1.323-2.954-2.954l0,0
	c0-1.631,1.323-2.954,2.954-2.954h28.231C113.152,64.985,114.475,66.308,114.475,67.938L114.475,67.938z"/>
<path style="fill:#DDDD85;" d="M172.568,61.708c0,4.356-3.521,7.877-7.877,7.877h-10.492c-4.356,0-7.877-3.521-7.877-7.877v-10.5
	c0-4.356,3.521-7.877,7.877-7.877h10.492c4.356,0,7.877,3.521,7.877,7.877V61.708z"/>
<path style="fill:#007EEF;" d="M176.506,67.938c0,1.631-1.323,2.954-2.954,2.954h-28.231c-1.631,0-2.954-1.323-2.954-2.954l0,0
	c0-1.631,1.323-2.954,2.954-2.954h28.231C175.183,64.985,176.506,66.308,176.506,67.938L176.506,67.938z"/>
<path style="fill:#DDDD85;" d="M234.598,61.708c0,4.356-3.521,7.877-7.877,7.877h-10.492c-4.34,0-7.877-3.521-7.877-7.877v-10.5
	c0-4.356,3.537-7.877,7.877-7.877h10.492c4.356,0,7.877,3.521,7.877,7.877V61.708z"/>
<path style="fill:#007EEF;" d="M238.537,67.938c0,1.631-1.323,2.954-2.954,2.954h-28.231c-1.631,0-2.954-1.323-2.954-2.954l0,0
	c0-1.631,1.323-2.954,2.954-2.954h28.231C237.214,64.985,238.537,66.308,238.537,67.938L238.537,67.938z"/>
<path style="fill:#DDDD85;" d="M296.629,61.708c0,4.356-3.521,7.877-7.877,7.877H278.26c-4.356,0-7.877-3.521-7.877-7.877v-10.5
	c0-4.356,3.521-7.877,7.877-7.877h10.492c4.356,0,7.877,3.521,7.877,7.877V61.708z"/>
<path style="fill:#007EEF;" d="M300.568,67.938c0,1.631-1.323,2.954-2.954,2.954h-28.231c-1.631,0-2.954-1.323-2.954-2.954l0,0
	c0-1.631,1.323-2.954,2.954-2.954h28.231C299.244,64.985,300.568,66.308,300.568,67.938L300.568,67.938z"/>
<path style="fill:#DDDD85;" d="M110.537,123.408c0,4.356-3.521,7.877-7.877,7.877H92.168c-4.34,0-7.877-3.521-7.877-7.877v-10.5
	c0-4.356,3.537-7.877,7.877-7.877h10.492c4.356,0,7.877,3.521,7.877,7.877V123.408z"/>
<path style="fill:#007EEF;" d="M114.475,129.638c0,1.631-1.323,2.954-2.954,2.954H83.291c-1.631,0-2.954-1.323-2.954-2.954l0,0
	c0-1.631,1.323-2.954,2.954-2.954h28.231C113.152,126.685,114.475,128.008,114.475,129.638L114.475,129.638z"/>
<path style="fill:#DDDD85;" d="M172.568,123.408c0,4.356-3.521,7.877-7.877,7.877h-10.492c-4.356,0-7.877-3.521-7.877-7.877v-10.5
	c0-4.356,3.521-7.877,7.877-7.877h10.492c4.356,0,7.877,3.521,7.877,7.877V123.408z"/>
<path style="fill:#007EEF;" d="M176.506,129.638c0,1.631-1.323,2.954-2.954,2.954h-28.231c-1.631,0-2.954-1.323-2.954-2.954l0,0
	c0-1.631,1.323-2.954,2.954-2.954h28.231C175.183,126.685,176.506,128.008,176.506,129.638L176.506,129.638z"/>
<path style="fill:#DDDD85;" d="M234.598,123.408c0,4.356-3.521,7.877-7.877,7.877h-10.492c-4.34,0-7.877-3.521-7.877-7.877v-10.5
	c0-4.356,3.537-7.877,7.877-7.877h10.492c4.356,0,7.877,3.521,7.877,7.877V123.408z"/>
<path style="fill:#007EEF;" d="M238.537,129.638c0,1.631-1.323,2.954-2.954,2.954h-28.231c-1.631,0-2.954-1.323-2.954-2.954l0,0
	c0-1.631,1.323-2.954,2.954-2.954h28.231C237.214,126.685,238.537,128.008,238.537,129.638L238.537,129.638z"/>
<path style="fill:#DDDD85;" d="M296.629,123.408c0,4.356-3.521,7.877-7.877,7.877H278.26c-4.356,0-7.877-3.521-7.877-7.877v-10.5
	c0-4.356,3.521-7.877,7.877-7.877h10.492c4.356,0,7.877,3.521,7.877,7.877V123.408z"/>
<path style="fill:#007EEF;" d="M300.568,129.638c0,1.631-1.323,2.954-2.954,2.954h-28.231c-1.631,0-2.954-1.323-2.954-2.954l0,0
	c0-1.631,1.323-2.954,2.954-2.954h28.231C299.244,126.685,300.568,128.008,300.568,129.638L300.568,129.638z"/>
<path style="fill:#DDDD85;" d="M110.537,185.108c0,4.356-3.521,7.877-7.877,7.877H92.168c-4.34,0-7.877-3.521-7.877-7.877v-10.5
	c0-4.356,3.537-7.877,7.877-7.877h10.492c4.356,0,7.877,3.521,7.877,7.877V185.108z"/>
<path style="fill:#007EEF;" d="M114.475,191.338c0,1.631-1.323,2.954-2.954,2.954H83.291c-1.631,0-2.954-1.323-2.954-2.954l0,0
	c0-1.631,1.323-2.954,2.954-2.954h28.231C113.152,188.384,114.475,189.708,114.475,191.338L114.475,191.338z"/>
<path style="fill:#DDDD85;" d="M172.568,185.108c0,4.356-3.521,7.877-7.877,7.877h-10.492c-4.356,0-7.877-3.521-7.877-7.877v-10.5
	c0-4.356,3.521-7.877,7.877-7.877h10.492c4.356,0,7.877,3.521,7.877,7.877V185.108z"/>
<path style="fill:#007EEF;" d="M176.506,191.338c0,1.631-1.323,2.954-2.954,2.954h-28.231c-1.631,0-2.954-1.323-2.954-2.954l0,0
	c0-1.631,1.323-2.954,2.954-2.954h28.231C175.183,188.384,176.506,189.708,176.506,191.338L176.506,191.338z"/>
<path style="fill:#DDDD85;" d="M234.598,185.108c0,4.356-3.521,7.877-7.877,7.877h-10.492c-4.34,0-7.877-3.521-7.877-7.877v-10.5
	c0-4.356,3.537-7.877,7.877-7.877h10.492c4.356,0,7.877,3.521,7.877,7.877V185.108z"/>
<path style="fill:#007EEF;" d="M238.537,191.338c0,1.631-1.323,2.954-2.954,2.954h-28.231c-1.631,0-2.954-1.323-2.954-2.954l0,0
	c0-1.631,1.323-2.954,2.954-2.954h28.231C237.214,188.384,238.537,189.708,238.537,191.338L238.537,191.338z"/>
<path style="fill:#DDDD85;" d="M296.629,185.108c0,4.356-3.521,7.877-7.877,7.877H278.26c-4.356,0-7.877-3.521-7.877-7.877v-10.5
	c0-4.356,3.521-7.877,7.877-7.877h10.492c4.356,0,7.877,3.521,7.877,7.877V185.108z"/>
<path style="fill:#007EEF;" d="M300.568,191.338c0,1.631-1.323,2.954-2.954,2.954h-28.231c-1.631,0-2.954-1.323-2.954-2.954l0,0
	c0-1.631,1.323-2.954,2.954-2.954h28.231C299.244,188.384,300.568,189.708,300.568,191.338L300.568,191.338z"/>
<path style="fill:#DDDD85;" d="M110.537,246.808c0,4.356-3.521,7.877-7.877,7.877H92.168c-4.34,0-7.877-3.521-7.877-7.877v-10.5
	c0-4.356,3.537-7.877,7.877-7.877h10.492c4.356,0,7.877,3.521,7.877,7.877V246.808z"/>
<path style="fill:#007EEF;" d="M114.475,253.038c0,1.631-1.323,2.954-2.954,2.954H83.291c-1.631,0-2.954-1.323-2.954-2.954l0,0
	c0-1.631,1.323-2.954,2.954-2.954h28.231C113.152,250.084,114.475,251.408,114.475,253.038L114.475,253.038z"/>
<path style="fill:#DDDD85;" d="M172.568,246.808c0,4.356-3.521,7.877-7.877,7.877h-10.492c-4.356,0-7.877-3.521-7.877-7.877v-10.5
	c0-4.356,3.521-7.877,7.877-7.877h10.492c4.356,0,7.877,3.521,7.877,7.877V246.808z"/>
<path style="fill:#007EEF;" d="M176.506,253.038c0,1.631-1.323,2.954-2.954,2.954h-28.231c-1.631,0-2.954-1.323-2.954-2.954l0,0
	c0-1.631,1.323-2.954,2.954-2.954h28.231C175.183,250.084,176.506,251.408,176.506,253.038L176.506,253.038z"/>
<path style="fill:#DDDD85;" d="M234.598,246.808c0,4.356-3.521,7.877-7.877,7.877h-10.492c-4.34,0-7.877-3.521-7.877-7.877v-10.5
	c0-4.356,3.537-7.877,7.877-7.877h10.492c4.356,0,7.877,3.521,7.877,7.877V246.808z"/>
<path style="fill:#007EEF;" d="M238.537,253.038c0,1.631-1.323,2.954-2.954,2.954h-28.231c-1.631,0-2.954-1.323-2.954-2.954l0,0
	c0-1.631,1.323-2.954,2.954-2.954h28.231C237.214,250.084,238.537,251.408,238.537,253.038L238.537,253.038z"/>
<path style="fill:#DDDD85;" d="M296.629,246.808c0,4.356-3.521,7.877-7.877,7.877H278.26c-4.356,0-7.877-3.521-7.877-7.877v-10.5
	c0-4.356,3.521-7.877,7.877-7.877h10.492c4.356,0,7.877,3.521,7.877,7.877V246.808z"/>
<path style="fill:#007EEF;" d="M300.568,253.038c0,1.631-1.323,2.954-2.954,2.954h-28.231c-1.631,0-2.954-1.323-2.954-2.954l0,0
	c0-1.631,1.323-2.954,2.954-2.954h28.231C299.244,250.084,300.568,251.408,300.568,253.038L300.568,253.038z"/>
<path style="fill:#DDDD85;" d="M110.537,308.508c0,4.356-3.521,7.877-7.877,7.877H92.168c-4.34,0-7.877-3.521-7.877-7.877v-10.5
	c0-4.356,3.537-7.877,7.877-7.877h10.492c4.356,0,7.877,3.521,7.877,7.877V308.508z"/>
<path style="fill:#007EEF;" d="M114.475,314.738c0,1.631-1.323,2.954-2.954,2.954H83.291c-1.631,0-2.954-1.323-2.954-2.954l0,0
	c0-1.631,1.323-2.954,2.954-2.954h28.231C113.152,311.784,114.475,313.108,114.475,314.738L114.475,314.738z"/>
<path style="fill:#DDDD85;" d="M172.568,308.508c0,4.356-3.521,7.877-7.877,7.877h-10.492c-4.356,0-7.877-3.521-7.877-7.877v-10.5
	c0-4.356,3.521-7.877,7.877-7.877h10.492c4.356,0,7.877,3.521,7.877,7.877V308.508z"/>
<path style="fill:#007EEF;" d="M176.506,314.738c0,1.631-1.323,2.954-2.954,2.954h-28.231c-1.631,0-2.954-1.323-2.954-2.954l0,0
	c0-1.631,1.323-2.954,2.954-2.954h28.231C175.183,311.784,176.506,313.108,176.506,314.738L176.506,314.738z"/>
<path style="fill:#DDDD85;" d="M234.598,308.508c0,4.356-3.521,7.877-7.877,7.877h-10.492c-4.34,0-7.877-3.521-7.877-7.877v-10.5
	c0-4.356,3.537-7.877,7.877-7.877h10.492c4.356,0,7.877,3.521,7.877,7.877V308.508z"/>
<path style="fill:#007EEF;" d="M238.537,314.738c0,1.631-1.323,2.954-2.954,2.954h-28.231c-1.631,0-2.954-1.323-2.954-2.954l0,0
	c0-1.631,1.323-2.954,2.954-2.954h28.231C237.214,311.784,238.537,313.108,238.537,314.738L238.537,314.738z"/>
<path style="fill:#DDDD85;" d="M296.629,308.508c0,4.356-3.521,7.877-7.877,7.877H278.26c-4.356,0-7.877-3.521-7.877-7.877v-10.5
	c0-4.356,3.521-7.877,7.877-7.877h10.492c4.356,0,7.877,3.521,7.877,7.877V308.508z"/>
<path style="fill:#007EEF;" d="M300.568,314.738c0,1.631-1.323,2.954-2.954,2.954h-28.231c-1.631,0-2.954-1.323-2.954-2.954l0,0
	c0-1.631,1.323-2.954,2.954-2.954h28.231C299.244,311.784,300.568,313.108,300.568,314.738L300.568,314.738z"/>
<path style="fill:#DDDD85;" d="M110.537,370.208c0,4.356-3.521,7.877-7.877,7.877H92.168c-4.34,0-7.877-3.521-7.877-7.877v-10.5
	c0-4.356,3.537-7.877,7.877-7.877h10.492c4.356,0,7.877,3.521,7.877,7.877V370.208z"/>
<path style="fill:#007EEF;" d="M114.475,376.438c0,1.631-1.323,2.954-2.954,2.954H83.291c-1.631,0-2.954-1.323-2.954-2.954l0,0
	c0-1.631,1.323-2.954,2.954-2.954h28.231C113.152,373.484,114.475,374.808,114.475,376.438L114.475,376.438z"/>
<path style="fill:#DDDD85;" d="M172.568,370.208c0,4.356-3.521,7.877-7.877,7.877h-10.492c-4.356,0-7.877-3.521-7.877-7.877v-10.5
	c0-4.356,3.521-7.877,7.877-7.877h10.492c4.356,0,7.877,3.521,7.877,7.877V370.208z"/>
<path style="fill:#007EEF;" d="M176.506,376.438c0,1.631-1.323,2.954-2.954,2.954h-28.231c-1.631,0-2.954-1.323-2.954-2.954l0,0
	c0-1.631,1.323-2.954,2.954-2.954h28.231C175.183,373.484,176.506,374.808,176.506,376.438L176.506,376.438z"/>
<path style="fill:#DDDD85;" d="M234.598,370.208c0,4.356-3.521,7.877-7.877,7.877h-10.492c-4.34,0-7.877-3.521-7.877-7.877v-10.5
	c0-4.356,3.537-7.877,7.877-7.877h10.492c4.356,0,7.877,3.521,7.877,7.877V370.208z"/>
<path style="fill:#007EEF;" d="M238.537,376.438c0,1.631-1.323,2.954-2.954,2.954h-28.231c-1.631,0-2.954-1.323-2.954-2.954l0,0
	c0-1.631,1.323-2.954,2.954-2.954h28.231C237.214,373.484,238.537,374.808,238.537,376.438L238.537,376.438z"/>
<path style="fill:#DDDD85;" d="M296.629,370.208c0,4.356-3.521,7.877-7.877,7.877H278.26c-4.356,0-7.877-3.521-7.877-7.877v-10.5
	c0-4.356,3.521-7.877,7.877-7.877h10.492c4.356,0,7.877,3.521,7.877,7.877V370.208z"/>
<path style="fill:#007EEF;" d="M300.568,376.438c0,1.631-1.323,2.954-2.954,2.954h-28.231c-1.631,0-2.954-1.323-2.954-2.954l0,0
	c0-1.631,1.323-2.954,2.954-2.954h28.231C299.244,373.484,300.568,374.808,300.568,376.438L300.568,376.438z"/>
<path style="fill:#DDDD85;" d="M204.737,411.569h-28.554c-4.356,0-7.877,3.521-7.877,7.877v64.985h44.308v-64.985
	C212.614,415.09,209.093,411.569,204.737,411.569z"/>
<path style="fill:#0B2C6D;" d="M366.71,155.569c0,2.174-1.757,3.938-3.938,3.938l0,0c-2.166,0-3.938-1.764-3.938-3.938V90.585
	c0-2.174,1.772-3.938,3.938-3.938l0,0c2.182,0,3.938,1.764,3.938,3.938V155.569z"/>
<path style="fill:#007EEF;" d="M332.249,476.554c0,4.356-3.505,7.877-7.877,7.877H28.987c-4.356,0-7.877-3.521-7.877-7.877l0,0
	c0-4.356,3.521-7.877,7.877-7.877h295.385C328.736,468.677,332.249,472.198,332.249,476.554L332.249,476.554z"/>
<g>
</g>
<g>
</g>
<g>
</g>
<g>
</g>
<g>
</g>
<g>
</g>
<g>
</g>
<g>
</g>
<g>
</g>
<g>
</g>
<g>
</g>
<g>
</g>
<g>
</g>
<g>
</g>
<g>
</g>
</svg>
